# xmcd CD database file
#
# Track frame offsets:
#	150
#	72465
#	144834
#
# Disc length: 2891 seconds
#
# Revision: 0
# Processed by: cddbd v1.5.1PL2 Copyright (c) Steve Scherf et al.
# Submitted via: CDex 1.51
#
DISCID=250b4903
DTITLE=Elliott Sharp - Dispersion of Seeds
DYEAR=2005
DGENRE=Jazz
TTITLE0=DOS 1 - Acoustic
TTITLE1=DOS 2
TTITLE2=DOS 3
EXTD=YEAR: 2005
EXTT0=
EXTT1=
EXTT2=
PLAYORDER=
